<?xml version="1.0" encoding="utf-8"?>
<!-- Generator: Adobe Illustrator 24.0.1, SVG Export Plug-In . SVG Version: 6.00 Build 0)  -->
<svg version="1.1" id="Layer_1" xmlns="http://www.w3.org/2000/svg" xmlns:xlink="http://www.w3.org/1999/xlink" x="0px" y="0px"
	 viewBox="0 0 41 33.2" style="enable-background:new 0 0 41 33.2;" xml:space="preserve">
<g>
	<g>
		<path d="M18.2,26.2H4.1c-0.8,0-1.6,0.7-1.6,1.6v1.4h17.2v-1.4C19.7,26.9,19,26.2,18.2,26.2z"/>
		<path d="M19.8,29.9H2.4c-0.5,0-0.9,0.4-0.9,0.9c0,0.5,0.4,0.9,0.9,0.9h17.3c0.5,0,1-0.4,1-0.9C20.8,30.3,20.3,29.9,19.8,29.9z"/>
	</g>
	<g>
		<path d="M37.3,18.1l-16.7-4.8l1.8-4.6l-8.9-3.5L8.6,17.8l8.9,3.4l1.8-4.6l15.5,7.7c1.8,0.8,3.9,0,4.7-1.9l0,0
			C40.1,20.7,39.1,18.7,37.3,18.1z"/>
		<path d="M6,19.5c-0.3,0.8,0.1,1.6,0.9,2l8.9,3.3c0.8,0.3,1.7-0.1,2-0.9s-0.1-1.6-0.9-2L8,18.6C7.2,18.3,6.4,18.7,6,19.5z"/>
		<path d="M13.1,2.4c-0.3,0.8,0.1,1.6,0.9,2l8.9,3.3c0.8,0.3,1.7-0.1,2-0.9s-0.1-1.6-0.9-2l-8.8-3.2C14.3,1.3,13.4,1.7,13.1,2.4z"/>
	</g>
</g>
</svg>
